<svg xmlns="http://www.w3.org/2000/svg" viewBox="0 0 1600 900" preserveAspectRatio="xMidYMid slice">
  <g fill="none" stroke="#EFE9E2" stroke-width="1.2" stroke-linecap="round" stroke-linejoin="round" opacity="0.075">
    <path d="M-90 110 C120 20 245 180 430 92 C620 2 760 112 932 58 C1138 -7 1268 122 1450 74 C1530 53 1592 42 1690 52"/>
    <path d="M-100 186 C98 85 258 248 450 166 C637 87 770 186 954 132 C1146 76 1287 208 1472 154 C1550 131 1615 128 1700 146"/>
    <path d="M-96 265 C96 171 270 324 462 246 C640 174 788 267 972 214 C1150 164 1308 296 1492 238 C1567 214 1622 220 1702 232"/>
    <path d="M-86 347 C106 264 282 408 474 330 C650 258 800 351 984 300 C1164 250 1324 374 1502 326 C1574 306 1634 302 1700 312"/>
    <path d="M-112 430 C86 350 278 488 488 412 C666 348 814 435 1004 386 C1180 342 1342 462 1518 410 C1598 386 1652 392 1710 404"/>
    <path d="M-118 512 C98 436 286 572 506 494 C682 432 834 522 1024 468 C1206 416 1350 548 1538 494 C1606 475 1662 476 1718 488"/>
    <path d="M-120 598 C110 524 300 662 522 576 C706 505 858 608 1052 550 C1230 496 1380 636 1568 578 C1632 558 1680 560 1722 574"/>
    <path d="M-122 686 C122 615 318 744 548 662 C742 592 888 706 1084 638 C1262 576 1412 724 1594 672 C1654 654 1690 656 1726 672"/>
    <path d="M-118 774 C146 706 342 824 580 750 C782 687 918 790 1122 730 C1302 677 1450 812 1624 764 C1676 750 1700 750 1726 764"/>
    <path d="M-110 858 C170 800 390 898 620 830 C824 770 966 868 1170 812 C1348 763 1494 878 1652 844 C1694 835 1718 836 1730 846"/>
  </g>
  <g fill="none" stroke="#EFE9E2" stroke-width="1.05" stroke-linecap="round" stroke-linejoin="round" opacity="0.055">
    <path d="M72 -46 C160 -28 224 24 240 104 C262 214 192 304 88 318 C-18 332 -106 262 -122 160 C-138 60 -44 -70 72 -46Z"/>
    <path d="M1138 -42 C1288 -64 1398 18 1416 128 C1438 270 1316 358 1188 338 C1058 318 988 214 1018 96 C1038 18 1066 -30 1138 -42Z"/>
    <path d="M1548 58 C1658 42 1744 110 1752 212 C1760 316 1668 390 1562 376 C1456 362 1394 286 1412 188 C1428 102 1480 68 1548 58Z"/>
    <path d="M784 236 C950 194 1100 286 1114 430 C1128 574 1002 668 846 644 C700 622 598 518 638 386 C664 300 704 258 784 236Z"/>
    <path d="M102 520 C222 490 330 554 350 666 C374 798 266 890 134 866 C10 844 -68 742 -30 622 C-8 552 38 536 102 520Z"/>
    <path d="M1376 578 C1492 548 1602 610 1622 722 C1644 846 1542 930 1418 906 C1302 884 1226 792 1258 682 C1280 610 1318 594 1376 578Z"/>
  </g>
</svg>
